<svg aria-hidden="true" style="width:0;height:0;position:absolute;overflow:hidden" xmlns="http://www.w3.org/2000/svg"><defs><symbol id="icon-hr-dots" viewBox="0 0 195 32"><path fill="#d9d9d9" style="fill:var(--color1,#d9d9d9)" d="M113.053 16c0 8.837-7.163 16-16 16s-16-7.163-16-16 7.163-16 16-16 16 7.163 16 16z"/><path fill="#d31342" style="fill:var(--color2,#d31342)" d="M31.599 15.443c.58-.539.524-1.366-.125-1.846L17.173 3.02c-.649-.48-1.69-.47-2.325.023L.498 14.161c-.635.492-.667 1.318-.069 1.843l.36.317c.597.525 1.562.588 2.154.139l1.072-.812v11.884c0 .729.699 1.319 1.561 1.319h5.594c.862 0 1.561-.59 1.561-1.319v-8.314h7.135v8.314c-.012.729.604 1.319 1.466 1.319h5.928c.862 0 1.561-.59 1.561-1.319V15.815l.662.491c.366.272 1.131.054 1.711-.486l.407-.378z"/><path fill="#d9d9d9" style="fill:var(--color1,#d9d9d9)" d="M193.053 16c0 8.837-7.163 16-16 16s-16-7.163-16-16 7.163-16 16-16 16 7.163 16 16z"/></symbol><symbol id="icon-Group-8" viewBox="0 0 256 32"><path fill="#c7133e" style="fill:var(--color3,#c7133e)" d="M144 16c0 8.837-7.163 16-16 16s-16-7.163-16-16 7.163-16 16-16 16 7.163 16 16zM32 16c0 8.837-7.163 16-16 16S0 24.837 0 16 7.163 0 16 0s16 7.163 16 16zM256 16c0 8.837-7.163 16-16 16s-16-7.163-16-16 7.163-16 16-16 16 7.163 16 16z"/></symbol><symbol id="icon-untitled" viewBox="0 0 49 32"><path fill="#e1e1e1" style="fill:var(--color4,#e1e1e1)" d="M35.781 0c2.155 0 4.191.52 6.107 1.561s3.473 2.537 4.67 4.488c1.15 1.951 1.724 4.249 1.724 6.894s-.718 5.225-2.155 7.74c-.479.911-1.341 2.081-2.587 3.512a65.965 65.965 0 0 1-3.592 3.707L35.422 32l-3.233-4.813a23.994 23.994 0 0 0 5.963-4.683c1.724-1.821 2.587-3.491 2.587-5.008 0-.78-.192-1.409-.575-1.886-1.676 1.084-3.545 1.626-5.604 1.626-1.485 0-2.898-.412-4.239-1.236-1.389-.78-2.491-1.821-3.305-3.122-.862-1.258-1.293-2.558-1.293-3.902 0-1.518.503-2.97 1.509-4.358.958-1.388 2.227-2.515 3.808-3.382C32.573.412 34.153 0 35.782 0zM9.987 0c2.155 0 4.191.52 6.107 1.561s3.473 2.537 4.67 4.488c1.15 1.951 1.724 4.249 1.724 6.894 0 1.864-.263 3.534-.79 5.008-.527 1.518-1.437 3.1-2.73 4.748-1.245 1.561-2.419 2.862-3.521 3.902-1.102 1.084-3.018 2.884-5.748 5.398l-3.233-4.813a23.994 23.994 0 0 0 5.963-4.683c1.724-1.821 2.586-3.491 2.586-5.008 0-.78-.192-1.409-.575-1.886-1.676 1.084-3.545 1.626-5.604 1.626-1.485 0-2.898-.412-4.239-1.236-1.389-.78-2.491-1.821-3.305-3.122C.43 11.619-.001 10.319-.001 8.975c0-1.518.479-2.97 1.437-4.358s2.227-2.515 3.808-3.382C6.777.411 8.357-.001 9.986-.001z"/></symbol></defs></svg>