<svg aria-hidden="true" style="width:0;height:0;position:absolute;overflow:hidden" xmlns="http://www.w3.org/2000/svg"><defs><symbol id="icon-close" viewBox="0 0 32 32"><path d="M32 3.223 28.777 0 16 12.777 3.223 0 0 3.223 12.777 16 0 28.777 3.223 32 16 19.223 28.777 32 32 28.777 19.223 16 32 3.223z"/></symbol><symbol id="about-ice-cream-1" viewBox="0 0 32 32"><path fill="#bd852d" style="fill:var(--color1,#bd852d)" d="M29.124 7.639c-1.005-1.007-2.649-1.076-3.773-.128l-6.401 6.401 3.757 3.917 6.419-6.419a2.67 2.67 0 0 0-.002-3.771z"/><path fill="#ca9d57" style="fill:var(--color2,#ca9d57)" d="M25.884 8.578c1.124-.948 2.767-.878 3.773.128.063.063.113.137.169.205a2.632 2.632 0 0 0-.702-1.272c-1.005-1.007-2.649-1.076-3.773-.128l-6.401 6.401.783.817 6.151-6.151z"/><path fill="#f85766" style="fill:var(--color3,#f85766)" d="M12.867 4.656a3.18 3.18 0 0 0-1.943-1.491 3.175 3.175 0 0 0-1.943.094l-.823-1.426a.533.533 0 1 0-.923.534l.824 1.427a3.203 3.203 0 0 0-.733 4.062 3.18 3.18 0 0 0 1.943 1.491 3.184 3.184 0 0 0 2.428-.32 3.203 3.203 0 0 0 1.171-4.371z"/><path fill="#f97985" style="fill:var(--color4,#f97985)" d="M12.867 4.656a3.18 3.18 0 0 0-1.943-1.491 3.175 3.175 0 0 0-1.943.094l-.823-1.426a.533.533 0 0 0-.728-.195.526.526 0 0 0-.259.471c.181.003.357.09.454.258l.823 1.426a3.182 3.182 0 0 1 1.943-.094c.826.221 1.516.75 1.943 1.491a3.203 3.203 0 0 1-.255 3.573 3.202 3.202 0 0 0 .787-4.107z"/><path fill="#ba414d" style="fill:var(--color5,#ba414d)" d="m3.537 20.8 2.427 9.212A2.662 2.662 0 0 0 8.539 32H22.32a2.66 2.66 0 0 0 2.574-1.987l2.427-9.213H3.536z"/><path fill="#ab2b37" style="fill:var(--color6,#ab2b37)" d="M28.229 20.8h-25.6a.532.532 0 1 0 0 1.066h1.197l.956 3.346a.534.534 0 0 0 .513.387h2.133v1.067c0 .433.169.835.466 1.124.299.308.701.476 1.134.476.882 0 1.6-.718 1.6-1.6v-1.067h1.067v1.067c0 .433.169.835.466 1.124.299.308.701.476 1.134.476.882 0 1.6-.718 1.6-1.6v-1.067h1.067v1.067c0 .433.169.835.466 1.124.299.308.701.476 1.134.476.882 0 1.6-.718 1.6-1.6v-1.067h1.067v1.067c0 .433.169.835.466 1.124.299.308.701.476 1.134.476.882 0 1.6-.718 1.6-1.6v-1.067h2.133a.534.534 0 0 0 .513-.387l.956-3.346h1.197a.532.532 0 1 0 0-1.066z"/><path fill="#fcb23c" style="fill:var(--color7,#fcb23c)" d="M10.629 13.333a6.94 6.94 0 0 0-6.933 6.933v.533h13.867v-.533a6.94 6.94 0 0 0-6.933-6.933z"/><path fill="#fdc163" style="fill:var(--color8,#fdc163)" d="M10.629 13.333a6.94 6.94 0 0 0-6.933 6.933v.533h.027c.274-3.574 3.263-6.4 6.906-6.4s6.632 2.826 6.906 6.4h.027v-.533a6.94 6.94 0 0 0-6.933-6.933z"/><path fill="#f85766" style="fill:var(--color3,#f85766)" d="M20.229 13.333a6.94 6.94 0 0 0-6.933 6.933v.533h13.867v-.533a6.94 6.94 0 0 0-6.933-6.933z"/><path fill="#f97985" style="fill:var(--color4,#f97985)" d="M20.229 13.333a6.88 6.88 0 0 0-3.601 1.02 6.888 6.888 0 0 1 2.534-.486 6.94 6.94 0 0 1 6.933 6.933h1.067v-.533a6.94 6.94 0 0 0-6.933-6.933z"/><path fill="#b376dd" style="fill:var(--color9,#b376dd)" d="M15.429 6.933c-3.823 0-6.933 3.11-6.933 6.933s3.11 6.933 6.933 6.933 6.933-3.11 6.933-6.933-3.11-6.933-6.933-6.933z"/><path fill="#c291e4" style="fill:var(--color10,#c291e4)" d="M15.429 8c3.643 0 6.632 2.826 6.906 6.4a6.72 6.72 0 0 0 .027-.533c0-3.823-3.11-6.933-6.933-6.933s-6.933 3.11-6.933 6.933c0 .18.013.357.027.533.274-3.574 3.263-6.4 6.906-6.4z"/><path fill="#fedde0" style="fill:var(--color11,#fedde0)" d="M16.496 0c-.882 0-1.6.718-1.6 1.6v5.867h1.067V5.334h5.333c.882 0 1.6-.718 1.6-1.6V.001h-6.4z"/><path fill="#f0e4f8" style="fill:var(--color12,#f0e4f8)" d="M17.029 12.8a.533.533 0 1 1-1.066 0 .533.533 0 0 1 1.066 0zM19.163 11.2a.533.533 0 1 1-1.066 0 .533.533 0 0 1 1.066 0z"/><path fill="#fedde0" style="fill:var(--color11,#fedde0)" d="M9.563 5.867a.533.533 0 1 1-1.066 0 .533.533 0 0 1 1.066 0z"/><path fill="#f0e4f8" style="fill:var(--color12,#f0e4f8)" d="M12.763 12.8a.533.533 0 1 1-1.066 0 .533.533 0 0 1 1.066 0zM14.896 11.2a.533.533 0 1 1-1.066 0 .533.533 0 0 1 1.066 0z"/><path fill="#f85766" style="fill:var(--color3,#f85766)" d="M17.029 0h3.733v5.333h-3.733V0z"/></symbol><symbol id="about-ice-cream-2" viewBox="0 0 32 32"><path fill="#d2edfc" style="fill:var(--color13,#d2edfc)" d="M21.304 19.787c-4.629 2.454-4.804 7.807-3.431 10.573-.345 1.002-1.405 1.206-1.405 1.206s-2.07-.204-2.415-1.206c1.373-2.765.72-8.241-2.99-10.388l10.242-.184z"/><path fill="#d2edfc" style="fill:var(--color13,#d2edfc)" d="M22.424 32H9.577v-.82c0-.451.369-.82.82-.82h11.207c.451 0 .82.369.82.82V32z"/><path fill="#fffefc" style="fill:var(--color14,#fffefc)" d="M21.304 19.787a8.37 8.37 0 0 0-1.162.743 12.874 12.874 0 0 1-4.143.673 12.85 12.85 0 0 1-4.115-.664 6.208 6.208 0 0 0-.822-.568l10.242-.184z"/><path fill="#c1ee89" style="fill:var(--color15,#c1ee89)" d="M16.273 13.064c3.598 0 6.532-2.934 6.532-6.532S19.871 0 16.273 0 9.741 2.934 9.741 6.532s2.934 6.532 6.532 6.532z"/><path fill="#dbffb0" style="fill:var(--color16,#dbffb0)" d="M10.894 4.869c.376-1.117 1.08-2.518 2.591-3.23.949-.447 1.006.561.404.796-.643.25-1.919 1.782-2.118 2.657-.21.927-1.173.654-.878-.222z"/><path fill="#744c29" style="fill:var(--color17,#744c29)" d="M12.563 19.185c3.598 0 6.532-2.934 6.532-6.532s-2.934-6.532-6.532-6.532-6.532 2.934-6.532 6.532 2.934 6.532 6.532 6.532z"/><path fill="#a67244" style="fill:var(--color18,#a67244)" d="M7.183 10.99c.376-1.117 1.08-2.518 2.592-3.23.949-.447 1.006.561.404.796-.643.25-1.919 1.782-2.118 2.657-.21.927-1.173.654-.878-.222z"/><path fill="#ffc273" style="fill:var(--color19,#ffc273)" d="M19.552 19.185c3.598 0 6.532-2.934 6.532-6.532s-2.934-6.532-6.532-6.532-6.532 2.934-6.532 6.532 2.934 6.532 6.532 6.532z"/><path fill="#ffd8a6" style="fill:var(--color20,#ffd8a6)" d="M14.173 10.99c.376-1.117 1.08-2.518 2.591-3.23.949-.447 1.006.561.404.796-.643.25-1.919 1.782-2.118 2.657-.21.927-1.173.654-.878-.222z"/><path fill="#d33b3a" style="fill:var(--color21,#d33b3a)" d="M25.013 16.31c-1.707 2.289-5.689 4.372-9.013 4.372-3.309 0-6.682-1.3-9.16-4.87.774-.272 1.476-.148 3.724.936 1.396.673 2.383 1.491 3.581.637 3.202-2.283 2.555.807 4.708.447 3.167-.53 4.206-2.532 6.16-1.522z"/><path fill="#e6f5ff" style="fill:var(--color22,#e6f5ff)" opacity=".5" d="M26.418 11.823c0 5.11-4.664 9.252-10.418 9.252S5.582 16.933 5.582 11.823h20.836z"/></symbol><symbol id="about-ice-cream-3" viewBox="0 0 32 32"><path fill="#1d1d1b" style="fill:var(--color23,#1d1d1b)" d="M30.197 10.904c.093-.285.549-.161.456.129-1.807 5.534-3.469 11.152-5.498 16.613a.159.159 0 0 1-.119.109.25.25 0 0 1-.212.192c-4.452.559-8.853-.595-12.435-2.92-1.983 2.236-4.747 6.736-8.076 6.963-2.268.15-3.101-1.574-2.951-3.37-.399-3.111 4.09-6.373 6.357-7.905-2.563-3.36-3.929-7.626-3.313-12.265 0-.005.005-.005.005-.01-.078-.052-.109-.181 0-.228 3.536-1.631 7.362-2.77 11.038-4.064 4.002-1.413 8.004-2.847 12.047-4.136a.183.183 0 0 1 .233.093.177.177 0 0 1 .052.212c-.295.663-1.041 1.02-1.413 1.677-.637 1.113-1.149 3.671 1.02 3.298a.235.235 0 0 1 .207.078c.114 0 .181.155.067.212l-.047.031c-.016.021-.036.041-.067.057s-.062.026-.088.036c-.689.44-1.118 1.098-1.098 1.967.01.461.145 1.046.512 1.362.58.507.994.114 1.486-.14a.156.156 0 0 1 .171.01c.021-.016.031-.036.052-.057.088-.073.223.021.166.129-.285.497-.259 1.082-.005 1.584.264.528 1.113 1.253 1.444.368v-.005c.005-.005.005-.01.01-.021zm-.311.937c-.414.093-.823-.104-1.118-.399-.471-.471-.766-1.268-.595-1.926-.834.554-1.833.031-2.159-1.02-.29-.942-.047-2.04.663-2.671-.766-.119-1.367-.911-1.444-1.75-.073-.828.269-1.641.689-2.335.186-.305.388-.6.647-.849.062-.062.135-.114.207-.171-3.567 1.268-7.155 2.459-10.722 3.707-2.278.797-4.551 1.688-6.839 2.506-.357 2.537-.497 5.208.766 7.543.922 1.708 2.516 3.489 3.976 4.784 3.344 2.966 7.828 3.836 12.156 4.064 1.206-3.847 2.516-7.662 3.774-11.483zM25.641 24.81c.109-.352.223-.699.331-1.051-4.696-.212-9.526-1.346-12.943-4.778C9.7 15.642 7.655 11.723 8.986 7.017c-.352.124-.709.254-1.061.378-1.693 10.779 7.667 17.644 17.716 17.416zm-.14.471c-5.162.114-10.53-1.382-14.206-5.177-3.148-3.251-4.918-8.133-3.738-12.586-.958.321-1.921.621-2.889.89.005.015.015.026.015.041-.062 4.338.911 8.568 3.386 12.032.135-.062.274.129.171.233a16.14 16.14 0 0 0 1.905 2.154c3.929 3.712 9.36 5.275 14.677 4.608.01 0 .021.005.031.005.207-.735.425-1.47.647-2.2zm-13.491-.507c-.171-.119-.347-.238-.512-.357 0 0 0 .005-.005.01-1.227 1.284-2.449 2.573-3.676 3.857-.771.802-1.517 1.776-2.49 2.35-1.196.704-2.537.642-3.381-.549a3.477 3.477 0 0 1-.321-.559c.01.093.01.186.026.28 1.082 1.812 2.433 2.262 4.043 1.351 1.02-.476 1.838-1.398 2.604-2.2 1.284-1.351 2.48-2.785 3.712-4.183zm-4.282 2.884c1.123-1.18 2.252-2.361 3.381-3.541A18.283 18.283 0 0 1 7.92 20.98c-2.169 1.714-6.14 4.416-6.088 7.31.047 2.366 2.754 2.47 4.157 1.186.616-.564 1.165-1.211 1.739-1.817z"/><path fill="#e94b59" style="fill:var(--color24,#e94b59)" d="M28.768 11.443c.295.295.704.492 1.118.399-1.258 3.821-2.568 7.636-3.774 11.483-4.328-.228-8.811-1.098-12.156-4.064-1.46-1.294-3.055-3.075-3.976-4.784-1.263-2.335-1.123-5.006-.766-7.543 2.288-.818 4.561-1.708 6.839-2.506C19.62 3.18 23.208 1.99 26.775.721c-.073.057-.145.109-.207.171-.259.248-.461.544-.647.849-.419.694-.761 1.507-.689 2.335.078.839.678 1.631 1.444 1.75-.709.632-.953 1.729-.663 2.671.326 1.051 1.325 1.574 2.159 1.02-.171.657.124 1.455.596 1.926zm.026 3.018c.073-.119-.104-.207-.181-.104-.357.471-.544 1.01-.6 1.6-.01.104.161.129.181.026a4.63 4.63 0 0 1 .6-1.522zm-.523-.481c.026-.124-.145-.171-.186-.052-.114.316-.186.642-.269.968-.031.124.155.171.192.052.093-.321.202-.642.264-.968zm-.476-3.391c.088-.073-.026-.223-.119-.155-.311.212-.663.29-1.035.238-.088-.015-.119.104-.036.135.414.16.854.062 1.191-.218zm-.461-.42c.104-.083.021-.233-.104-.181-.331.145-.694.124-.947-.155-.057-.062-.171.021-.119.093.254.363.792.533 1.17.243zm-1.289-4.178a.08.08 0 0 0-.114-.114 1.4 1.4 0 0 0-.435.673c-.036.114.14.161.181.047.078-.228.212-.425.368-.606zM24.129 20.71c.093-.083-.041-.207-.129-.129-.285.233-.544.487-.802.746-.067.073.031.166.104.104.29-.228.564-.461.828-.72zm-.574-.777c.538-.683.544-1.589.481-2.418a.242.242 0 0 0-.098-.192c-.015-.078-.078-.135-.171-.098-.031.015-.057.036-.088.047-.021.01-.036.021-.057.031-.59.28-1.092.73-1.439 1.289-.295.476-.678 1.331-.098 1.76.497.368 1.144-.005 1.47-.419zm.357-17.058c.119.01.145-.192.026-.217a1.11 1.11 0 0 0-.932.186c-.119.088-.01.285.119.202.238-.15.507-.202.787-.171zm-.119-.622c.078-.083-.026-.228-.124-.161-.352.238-.715.435-1.139.513-.098.016-.078.181.021.171.466-.036.911-.191 1.242-.523zm-.264 18.255c.015-.062-.067-.098-.104-.041-.145.233-.29.445-.528.595-.098.062-.01.212.088.15.264-.161.481-.388.544-.704zM22.514 5.971c.088-.14.021-.29-.093-.373-.01-.067-.057-.124-.14-.145-.787-.192-1.75-.264-2.48.171-.564.337-.973 1.046-.715 1.698.761 1.957 2.884-.538 3.427-1.351zm-.347 9.412c.073-.088-.047-.212-.124-.129-.135.15-.259.3-.388.456-.078.088.052.217.129.124.129-.15.259-.3.383-.45zm-.44-3.64a.292.292 0 0 0-.062-.238c.031-.093-.01-.212-.14-.197-.621.062-1.16.336-1.553.834-.331.43-.704 1.18-.28 1.672.337.383.978.326 1.341.01.564-.486.58-1.408.694-2.081zm-.047-3.039c.083-.109-.093-.238-.181-.14a1.336 1.336 0 0 1-.528.357c-.15.052-.088.285.062.238a1.23 1.23 0 0 0 .647-.456zm-.119-.502c.088-.057.01-.181-.083-.14-.362.171-.725.3-1.129.347-.114.01-.114.186 0 .176.43-.036.849-.145 1.211-.383zm-2.842 5.451c.036.14.233.078.212-.057a4.578 4.578 0 0 1-.01-1.134c.01-.145-.238-.181-.259-.036-.062.419-.041.818.057 1.227zm-1.755 5.431c.114.021.161-.14.047-.171a2.532 2.532 0 0 1-.818-.383c-.104-.073-.202.098-.098.171.259.197.544.331.87.383zm-.606.233c.098-.016.052-.161-.041-.145a.745.745 0 0 1-.73-.311c-.047-.067-.155-.01-.114.062a.83.83 0 0 0 .885.393zm-1.139-9.179c.114-.062.14-.248-.016-.285-.761-.161-3.495-.078-3.018 1.351.192.559.849.751 1.367.575.678-.233 1.092-.947 1.6-1.413a.219.219 0 0 0 .067-.228zm-3.121-.021c.15-.041.088-.248-.057-.223-.502.083-.797.559-.725 1.046.021.124.228.098.223-.031a.771.771 0 0 1 .559-.792zm-.12-.823c.073-.031.021-.155-.057-.129-.492.14-.87.44-1.154.865-.057.088.083.166.145.083.264-.368.647-.642 1.066-.818z"/><path fill="#1d1d1b" style="fill:var(--color23,#1d1d1b)" d="M28.613 14.357c.078-.104.254-.015.181.104a4.586 4.586 0 0 0-.6 1.522c-.021.104-.192.078-.181-.026.057-.59.243-1.129.6-1.6zM28.084 13.928c.041-.119.212-.073.186.052-.062.326-.171.647-.264.968-.036.119-.223.073-.192-.052.083-.326.155-.652.269-.968zM27.675 10.433c.093-.067.207.083.119.155-.337.28-.777.378-1.191.217-.083-.031-.052-.15.036-.135a1.44 1.44 0 0 0 1.036-.238zM27.23 9.988c.124-.052.207.098.104.181-.378.29-.916.119-1.17-.243-.052-.073.062-.155.119-.093.254.28.616.3.947.155zM25.931 5.877a.08.08 0 0 1 .114.114c-.155.181-.29.378-.368.606-.041.114-.217.067-.181-.047.088-.269.217-.492.435-.673z"/><path fill="#33aa6c" style="fill:var(--color25,#33aa6c)" d="M11.295 20.104c3.676 3.795 9.044 5.291 14.206 5.177-.223.73-.44 1.465-.647 2.2-.01 0-.021-.005-.031-.005-5.317.668-10.748-.896-14.677-4.608a16.14 16.14 0 0 1-1.905-2.154c.104-.104-.036-.295-.171-.233-2.475-3.464-3.448-7.693-3.386-12.032 0-.016-.01-.026-.015-.041a57.878 57.878 0 0 0 2.889-.89c-1.181 4.453.59 9.335 3.738 12.586zm13.455 5.912c.114-.016.119-.166 0-.181a3.45 3.45 0 0 0-.321-.016c-.135 0-.135.212 0 .212.109 0 .212-.005.321-.015zm-4.007.58c.114 0 .114-.171 0-.176a12.358 12.358 0 0 1-1.465-.192c-.114-.021-.161.14-.052.171.502.129.999.197 1.517.197zm-.781.321c.088 0 .114-.14.026-.155-.44-.062-.88-.062-1.315-.073-.098 0-.098.145 0 .15.43.041.859.088 1.289.078zm-9.148-6.642c.062.036.109-.057.057-.093a9.35 9.35 0 0 1-1.025-.834c-.057-.052-.135.031-.083.083.321.321.663.611 1.051.844zm-.363.575c.052.083.176.01.129-.078a1.805 1.805 0 0 0-.549-.601c-.073-.052-.14.067-.073.119.207.155.362.342.492.559zM5.88 11.194c.031-.119-.14-.166-.181-.052a2.538 2.538 0 0 0-.145 1.258c.021.135.228.14.217 0a4.482 4.482 0 0 1 .109-1.206zm-.627 1.595c.01.093.161.098.15 0a22.44 22.44 0 0 0-.15-1.31c-.01-.057-.109-.041-.104.015.016.435.062.865.104 1.294z"/><path fill="#1d1d1b" style="fill:var(--color23,#1d1d1b)" d="M24.75 25.835c.119.015.114.166 0 .181-.109.01-.212.015-.321.015-.135 0-.135-.212 0-.212.109 0 .212.005.321.016zM24 20.58c.088-.078.223.047.129.129a9.928 9.928 0 0 1-.828.72c-.073.062-.171-.031-.104-.104.259-.259.518-.512.802-.746zM24.036 17.515c.062.828.057 1.734-.481 2.418-.326.414-.973.787-1.47.419-.58-.43-.197-1.284.098-1.76a3.432 3.432 0 0 1 1.439-1.289c.021-.01.036-.021.057-.031.031-.01.057-.031.088-.047.093-.036.155.021.171.098a.239.239 0 0 1 .098.191zM23.938 2.657c.119.026.093.228-.026.217a1.199 1.199 0 0 0-.787.171c-.129.083-.238-.114-.119-.202a1.11 1.11 0 0 1 .932-.186zM23.668 2.093c.098-.067.202.078.124.161-.331.331-.777.487-1.242.523-.098.01-.119-.155-.021-.171.424-.078.787-.274 1.139-.513zM23.425 20.466c.036-.057.119-.021.104.041-.062.316-.28.544-.544.704-.098.062-.186-.088-.088-.15.238-.15.383-.362.528-.595zM22.421 5.598c.114.083.181.233.093.373-.544.813-2.666 3.308-3.427 1.351-.259-.652.15-1.362.715-1.698.73-.435 1.693-.362 2.48-.171a.177.177 0 0 1 .14.145zM22.488 23.842c.093.01.098.155 0 .15a5.23 5.23 0 0 1-1.123-.181c-.093-.026-.052-.161.041-.14.357.078.72.13 1.082.171zM22.043 15.253c.078-.083.197.041.124.129-.124.15-.254.3-.383.45-.078.093-.207-.036-.129-.124.13-.155.254-.305.388-.456zM21.862 24.241c.088.015.067.166-.021.155a3.2 3.2 0 0 1-1.258-.424c-.083-.052-.01-.171.073-.129.383.191.782.321 1.206.399zM21.665 11.505a.29.29 0 0 1 .062.238c-.114.673-.129 1.595-.694 2.081-.362.316-1.004.373-1.341-.01-.424-.492-.052-1.243.28-1.672.393-.497.932-.771 1.553-.834.129-.016.171.103.14.197zM21.499 8.564c.088-.098.264.031.181.14a1.234 1.234 0 0 1-.647.456c-.15.047-.212-.186-.062-.238.207-.072.373-.197.528-.357zM21.478 8.062c.093-.041.171.083.083.14-.362.238-.782.347-1.211.383-.114.01-.114-.166 0-.176a3.586 3.586 0 0 0 1.129-.347zM20.743 26.42c.114.005.114.176 0 .176a5.98 5.98 0 0 1-1.517-.197c-.109-.031-.062-.192.052-.171.481.093.973.155 1.465.192zM19.988 26.762c.088.015.062.155-.026.155-.43.01-.859-.036-1.289-.078-.098-.005-.098-.15 0-.15.435.01.875.01 1.315.072zM18.931 13.596c.021.135-.176.197-.212.057a3.168 3.168 0 0 1-.057-1.227c.021-.145.269-.109.259.036-.041.378-.041.756.01 1.134zM17.011 18.913c.114.031.067.192-.047.171a1.916 1.916 0 0 1-.87-.383c-.104-.073-.005-.243.098-.171.248.181.523.3.818.383zM16.317 19.172c.093-.016.14.129.041.145a.833.833 0 0 1-.885-.393c-.041-.073.067-.129.114-.062.166.238.44.352.73.311zM15.204 9.853c.155.036.129.223.016.285a.22.22 0 0 1-.067.228c-.507.466-.922 1.18-1.6 1.413-.518.176-1.175-.016-1.367-.575-.476-1.429 2.257-1.512 3.018-1.351zM12.041 9.895c.145-.026.207.181.057.223a.771.771 0 0 0-.559.792c.005.129-.202.155-.223.031-.073-.487.223-.963.725-1.046zM11.921 9.165c.078-.026.129.098.057.129-.419.176-.802.45-1.066.818-.062.083-.202.005-.145-.083.285-.425.663-.725 1.154-.865z"/><path fill="#fde9cc" style="fill:var(--color26,#fde9cc)" d="M11.497 24.417c.166.119.342.238.512.357-1.232 1.398-2.428 2.832-3.712 4.183-.766.802-1.584 1.724-2.604 2.2-1.61.911-2.961.461-4.043-1.351-.016-.093-.016-.186-.026-.28.083.186.192.373.321.559.844 1.191 2.185 1.253 3.381.549.973-.575 1.719-1.548 2.49-2.35 1.227-1.284 2.449-2.573 3.676-3.857.005-.005.005-.011.005-.011zm-5.182 6.016c.047-.073-.073-.171-.124-.098a2.16 2.16 0 0 1-.818.647c-.067.031-.021.14.047.119.378-.129.668-.342.896-.668z"/><path fill="#fde9cc" style="fill:var(--color26,#fde9cc)" d="M11.109 24.116c-1.129 1.18-2.257 2.361-3.381 3.541-.575.606-1.123 1.253-1.739 1.817-1.403 1.284-4.111 1.18-4.157-1.186-.052-2.894 3.919-5.596 6.088-7.31a18.283 18.283 0 0 0 3.189 3.137zM9.68 25.219c.067-.078-.021-.217-.114-.15-.316.228-.59.512-.865.792-.088.088.041.212.14.135.29-.243.59-.487.839-.777zm-.306-.471c.067-.098-.088-.217-.161-.124-.238.274-.445.569-.663.865-.062.088.083.202.155.114.228-.28.461-.559.668-.854zm-2.687-.254c.073-.073-.036-.181-.109-.114-.243.233-.476.476-.709.715-.067.073.036.171.104.109.243-.233.486-.466.714-.709zm-3.701 2.884c.047-.114-.145-.192-.197-.083-.264.549-.305 1.154-.057 1.719.036.088.171.026.15-.062-.124-.538-.104-1.056.104-1.574zm-.383 1.993c.073.062.192-.021.14-.109-.192-.305-.295-.642-.259-1.004.016-.124-.192-.15-.217-.031-.078.424.021.839.337 1.144z"/><path fill="#1d1d1b" style="fill:var(--color23,#1d1d1b)" d="M10.871 20.182c.052.036.005.129-.057.093a5.498 5.498 0 0 1-1.051-.844c-.052-.052.026-.135.083-.083.316.305.668.575 1.025.834zM10.581 20.772c.047.088-.078.161-.129.078a1.876 1.876 0 0 0-.492-.559c-.067-.052 0-.171.073-.119.228.16.414.357.549.6zM10.099 16.356c.067.098-.093.223-.171.129a2.696 2.696 0 0 1-.45-.875c-.041-.145.176-.202.223-.062.093.285.228.554.399.807zM9.566 25.069c.093-.067.181.073.114.15-.248.29-.549.533-.839.777-.098.078-.228-.047-.14-.135.274-.279.549-.564.865-.792zM9.214 24.624c.073-.093.228.026.161.124-.207.295-.44.575-.668.854-.073.088-.217-.026-.155-.114.217-.295.425-.59.663-.865zM6.579 24.38c.073-.067.181.041.109.114-.228.243-.471.476-.715.709-.067.062-.171-.036-.104-.109.233-.238.466-.481.709-.714zM6.19 30.334c.052-.073.171.026.124.098a1.733 1.733 0 0 1-.896.668c-.067.021-.114-.088-.047-.119a2.17 2.17 0 0 0 .818-.647zM5.699 11.143c.041-.114.212-.067.181.052a4.527 4.527 0 0 0-.109 1.206c.01.14-.197.135-.217 0a2.538 2.538 0 0 1 .145-1.258zM5.404 12.789c.01.098-.14.093-.15 0-.041-.43-.088-.859-.104-1.294-.005-.057.093-.073.104-.015.067.435.109.875.15 1.31zM2.789 27.295c.052-.109.243-.031.197.083-.207.518-.228 1.035-.104 1.574.021.088-.114.15-.15.062-.248-.564-.207-1.17.057-1.719z"/><path fill="#1d1d1b" style="fill:var(--color23,#1d1d1b)" d="M2.742 29.262c.052.088-.067.171-.14.109-.316-.305-.414-.72-.337-1.144.026-.119.233-.093.217.031-.036.362.067.699.259 1.004z"/></symbol><symbol id="about-ice-cream-4" viewBox="0 0 32 32"><path fill="#1d1d1b" style="fill:var(--color23,#1d1d1b)" d="M24.482 7.086c.71.504.887 1.527.35 2.256-.57.766-1.504.724-2.386.747 1.191 1.541 2.76 4.31.556 5.772-.574.378-1.172.369-1.775.248 0 .019 0 .037-.005.056-1.209 3.885-2.47 7.757-3.713 11.633-.336 1.041-.565 4.03-2.097 4.068-.019.089-.098.154-.21.131-1.733-.411-2.027-3.755-2.47-5.142-1.055-3.292-2.195-6.575-3.073-9.919-1.294-.205-2.405-.85-2.723-2.335-.472-2.218 1.13-4.819 3.25-5.455-.257-.649-.14-1.415.215-2.204.495-1.107 1.518-2.041 2.755-1.826.019-.037.037-.075.061-.117.5-.504.742-1.149.724-1.929a3.35 3.35 0 0 0-.532-1.004c-.098-.168-.266-.336-.304-.537-.075-.374.075-.724.346-.976 1.826-1.705 6.155.873 5.935 3.157l-.005.005c.532.023 1.009.308 1.139.943.346.037.677.089.841.383.201-.957 1.238-1.896 2.242-1.653.047.009.075.042.093.079h.014c.453.135.808.673.476 1.111-.182.238-.467.252-.747.266-.243.009-.444.033-.64.187-.047.037-.392.495-.322.509.047.009.07.056.065.098.817-.065 1.62.607 1.929 1.322a.236.236 0 0 1 .009.126zm-.509 2.391c.985-.504.817-1.62.089-2.242a.14.14 0 0 1-.051-.163c-.43-.252-1.069.075-1.555-.047.037.252-.014.523-.163.729a1 1 0 0 1-1.154.336c-.098-.037-.187-.163-.107-.266.177-.243.07-.551.009-.855-.551.5-1.597.448-2.176.121-.159-.089-.098-.36.093-.35.458.033.607-.537.934-.747.061-.037.121-.065.187-.089a1.765 1.765 0 0 1-.383-.36 1.547 1.547 0 0 1-.318-.714.223.223 0 0 1-.033.079c-.079.121-.177.21-.29.304-.14.121-.388-.037-.271-.205.079-.117.159-.233.271-.322.103-.084.261-.033.308.065a1.15 1.15 0 0 1-.014-.257c0-.135.168-.21.271-.112.154.159.383.21.63.243-.635-.869-1.798-.607-2.284.355-.322.626-.28 1.317-.192 1.999.051.374.154.761.089 1.139-.042.238-.154.383-.229.584a.143.143 0 0 1-.028.107c.042.037.089.075.126.121a.914.914 0 0 1 .187.714.85.85 0 0 1-.037.103c.248-.177.574-.252.859-.098.192.103.416.416.439.686a1.18 1.18 0 0 1 1.355.164c.276-.472.771-.64 1.336-.71.691-.084 1.462.014 2.102-.313zm-.28-2.872c.033 0 .07.009.103.009a1.957 1.957 0 0 0-.355-.322c-.308-.205-.63-.248-.971-.346-.098-.023-.135-.149-.098-.229-.336-.056-.084-.663.065-.841.187-.224.448-.374.742-.411.149-.023.327.014.472-.023.481-.135.28-.542-.047-.724-.009-.005-.014-.014-.019-.019-.453.065-.845.098-1.233.383-.411.308-.663.738-.78 1.233-.023.107-.159.112-.22.042-.047.028-.107.028-.149-.023-.341-.411-1.018-.215-1.476-.402.056.168.14.322.261.462.205.233.472.294.724.448.117.075.056.233-.065.243a.56.56 0 0 1-.159-.005c-.14.056-.285.107-.406.201-.168.131-.261.322-.402.481-.056.07-.121.126-.187.177.229.056.462.065.701.009.374-.084.593-.313.906-.5.126-.079.243.07.192.187-.014.023-.033.042-.042.061.098.36.29.729.192 1.083a.602.602 0 0 0 .528-.215c.215-.261.121-.584-.037-.836-.056-.089-.014-.177.056-.22a.127.127 0 0 1 .215-.005c.35.477 1.023.094 1.49.098zm-.182 7.584c.537-1.392-.803-2.979-1.56-3.993a.154.154 0 0 1-.033-.075c-.481.051-.915.182-1.219.56.304.406.406.995.196 1.443-.093.191-.411.098-.402-.112.023-.425.089-.841-.248-1.181a.858.858 0 0 0-1.186-.014c-.093.089-.248.005-.243-.103a.204.204 0 0 1-.084-.14c-.014-.117.051-.22.019-.341a.461.461 0 0 0-.201-.257c-.243-.126-.509.014-.672.205a.614.614 0 0 1 .098.201c.047.159-.14.238-.252.149-.117-.093-.177-.233-.266-.35-.103-.135-.224-.261-.341-.388-.084-.093.028-.257.14-.182.051.033.103.07.159.112a.455.455 0 0 0 .103-.224.528.528 0 0 0-.154-.397.749.749 0 0 0-.836-.182.135.135 0 0 1-.112-.009c-.014 0-.028.005-.047.005-.121-.014-.177-.117-.131-.229.061-.145.243-.224.163-.411-.075-.187-.332-.168-.472-.075-.093.065-.22-.061-.154-.154.215-.29.677-.318.901-.005.079.107.103.304.079.476.173-.019.355.005.523.075 0-.019.005-.037 0-.061-.014-.266.205-.63.192-.957-.014-.285-.098-.574-.126-.859-.075-.831-.009-1.718.56-2.377.308-.36.799-.584 1.27-.621-.252-1.177-1.275-2.195-2.321-2.737-.486-.248-1.149-.486-1.709-.467-.7-.07-1.219.304-1.555 1.116.093.131.182.261.271.402.252.574.616 1.069.528 1.737-.112.878-1.719 2.143-.495 3.003.14.098.056.364-.121.29-.892-.364-1.069-.957-.747-1.7-1.018.145-1.761.794-2.195 1.761-.187.411-.364.887-.36 1.345.009.733.406 1.055.901 1.466.159.135-.047.388-.22.285-.406-.243-.686-.532-.864-.855-2.788 1.583-4.721 6.996.215 7.224 1.933.084 3.759-.78 5.609-1.205 1.219-.276 2.405-.42 3.643-.159 1.303.271 2.839 1.359 3.755-1.037zm-2.695 1.863c.005-.014.014-.019.019-.033-.294-.075-.588-.159-.878-.224-2.452-.565-4.563.374-6.902.929-.906.215-2.027.36-3.068.257.873 2.349 1.597 4.759 2.349 7.15.411 1.303.822 2.606 1.233 3.904.304.967.626 3.208 1.723 3.615 1.079-.392 1.667-3.605 1.924-4.404.369-1.149.733-2.298 1.102-3.446.827-2.583 1.649-5.17 2.498-7.747z"/><path fill="#ef67ac" style="fill:var(--color27,#ef67ac)" d="M24.062 7.235c.729.621.897 1.737-.089 2.242-.64.327-1.41.229-2.101.313-.565.07-1.06.238-1.336.71-.042-.037-.084-.075-.131-.103a1.18 1.18 0 0 0-1.224-.061c-.023-.271-.248-.584-.439-.686-.285-.154-.612-.079-.859.098a.85.85 0 0 0 .037-.103.908.908 0 0 0-.187-.714c-.037-.047-.084-.084-.126-.121a.144.144 0 0 0 .028-.107c.075-.201.187-.346.229-.584.065-.378-.037-.766-.089-1.139-.089-.682-.131-1.373.192-1.999.486-.962 1.649-1.224 2.284-.355-.248-.033-.476-.084-.63-.243-.103-.098-.271-.023-.271.112-.005.089 0 .173.014.257-.047-.098-.205-.149-.308-.065a1.372 1.372 0 0 0-.271.322c-.117.168.131.327.271.205.112-.093.21-.182.29-.304a.223.223 0 0 0 .033-.079c.042.257.149.504.318.714.098.126.233.257.383.36a.94.94 0 0 0-.187.089c-.327.21-.476.78-.934.747-.192-.009-.252.261-.093.35.579.327 1.625.378 2.176-.121.061.304.168.612-.009.855-.079.103.009.229.107.266.406.154.897.023 1.154-.336a1 1 0 0 0 .163-.729c.486.121 1.125-.205 1.555.047a.14.14 0 0 0 .051.163zm-.075 1.042c.098-.205.028-.416-.07-.616-.075-.154-.299-.042-.261.112.037.159.005.313.042.467.028.126.229.163.289.037zm-.294.574c.168-.075.037-.299-.117-.276-.173.023-.355.042-.509.126-.149.079-.089.336.089.322.187-.009.36-.103.537-.173zm-.346-.883c.009-.135-.196-.187-.257-.07-.075.154-.22.196-.308.336-.042.075-.005.21.093.224.285.042.453-.238.472-.49zm-2.12 1.546c.112-.005.14-.168.028-.196-.411-.107-.831.121-1.055.462-.056.089.079.191.145.112.238-.271.532-.36.883-.378zM19.63 8.127c.056-.126-.037-.28-.182-.243-.21.056-.36.294-.439.486-.061.149.145.22.238.14.131-.103.318-.233.383-.383zm-1.037.701c.056-.238.065-.57-.084-.771-.089-.126-.341-.103-.327.084.019.22.093.42.107.645.009.168.261.22.304.042z"/><path fill="#1d1d1b" style="fill:var(--color23,#1d1d1b)" d="M23.917 7.66c.098.201.168.411.07.616-.061.126-.261.089-.29-.037-.037-.154-.005-.308-.042-.467-.037-.154.187-.266.262-.112z"/><path fill="#33aa6c" style="fill:var(--color25,#33aa6c)" d="M23.796 6.614c-.033 0-.07-.009-.103-.009-.467-.005-1.139.378-1.49-.098a.126.126 0 0 0-.215.005c-.07.042-.112.131-.056.22.159.252.252.574.037.836a.605.605 0 0 1-.528.215c.098-.355-.093-.724-.192-1.083.009-.019.028-.037.042-.061.051-.117-.065-.266-.192-.187-.313.187-.532.416-.906.5a1.482 1.482 0 0 1-.701-.009 1.11 1.11 0 0 0 .187-.177c.14-.159.233-.35.402-.481.121-.093.266-.145.406-.201a.644.644 0 0 0 .159.005c.121-.009.182-.168.065-.243-.252-.154-.518-.215-.724-.448a1.347 1.347 0 0 1-.261-.462c.458.187 1.135-.009 1.476.402.042.051.103.051.149.023.061.07.196.065.22-.042.117-.495.369-.925.78-1.233.388-.285.78-.318 1.233-.383.005.005.009.014.019.019.327.182.528.588.047.724-.145.037-.322 0-.472.023a1.151 1.151 0 0 0-.742.411c-.149.177-.402.785-.065.841-.037.079 0 .205.098.229.341.098.663.14.971.346.135.093.252.205.355.322z"/><path fill="#1d1d1b" style="fill:var(--color23,#1d1d1b)" d="M23.576 8.575c.154-.023.285.201.117.276-.177.07-.35.163-.537.173-.177.014-.238-.243-.089-.322.154-.084.336-.103.509-.126z"/><path fill="#f8f8cc" style="fill:var(--color28,#f8f8cc)" d="M21.951 10.196c.757 1.013 2.097 2.601 1.56 3.993-.915 2.396-2.452 1.308-3.755 1.037-1.238-.261-2.424-.117-3.643.159-1.849.425-3.675 1.289-5.609 1.205-4.936-.229-3.003-5.641-.215-7.224.177.322.458.612.864.855.173.103.378-.149.22-.285-.495-.411-.892-.733-.901-1.466-.005-.458.173-.934.36-1.345.434-.967 1.177-1.616 2.195-1.761-.322.742-.145 1.336.747 1.7.177.075.261-.191.121-.29-1.224-.859.383-2.125.495-3.003.089-.668-.276-1.163-.528-1.737a8.539 8.539 0 0 0-.271-.402c.336-.813.855-1.186 1.555-1.116.56-.019 1.224.22 1.709.467 1.046.542 2.069 1.56 2.321 2.737-.472.037-.962.261-1.27.621-.57.658-.635 1.546-.56 2.377.028.285.112.574.126.859.014.327-.205.691-.192.957.005.023 0 .042 0 .061a1.076 1.076 0 0 0-.523-.075c.023-.173 0-.369-.079-.476-.224-.313-.686-.285-.901.005-.065.093.061.22.154.154.14-.093.397-.112.472.075.079.187-.103.266-.163.411-.047.112.009.215.131.229.019 0 .033-.005.047-.005.033.019.07.023.112.009a.749.749 0 0 1 .836.182.528.528 0 0 1 .154.397.447.447 0 0 1-.103.224 2.493 2.493 0 0 0-.159-.112c-.112-.075-.224.089-.14.182.117.126.238.252.341.388.089.117.149.257.266.35.112.089.299.009.252-.149a.624.624 0 0 0-.098-.201c.163-.191.43-.332.672-.205a.462.462 0 0 1 .201.257c.033.121-.033.224-.019.341a.204.204 0 0 0 .084.14c-.005.107.149.191.243.103a.858.858 0 0 1 1.186.014c.336.341.271.757.248 1.181-.009.21.308.304.402.112.21-.448.107-1.037-.196-1.443.304-.378.738-.509 1.219-.56a.158.158 0 0 0 .033.075zm.808 2.293c.037.098.215.098.205-.028-.056-.588-.532-1.055-1.065-1.261-.07-.028-.112.079-.051.117.476.261.719.682.911 1.172zm-.416.555c.019.14.233.149.224 0a1.923 1.923 0 0 0-.453-1.181c-.084-.098-.252.033-.182.135.219.313.36.673.411 1.046zm-5.37-11.567c.065.051.173-.014.121-.093-.276-.42-.757-.63-1.238-.691-.093-.014-.117.149-.023.168.448.089.798.327 1.139.616zm-.033.617c.098.084.238-.051.145-.145a3.589 3.589 0 0 0-1.111-.803c-.112-.051-.205.098-.098.168.369.243.729.49 1.065.78zm-.845 3.245c.019.135.229.145.22 0-.014-.215-.028-.43-.047-.644-.009-.154-.261-.154-.243 0 .019.215.047.43.07.644zm.126 7.71c.084-.023.047-.145-.033-.126a1.429 1.429 0 0 1-1.06-.168c-.07-.042-.135.065-.065.112.35.229.757.303 1.158.182zm-.495-.985c.084.07.201-.037.121-.121-.182-.187-.374-.364-.565-.542-.103-.093-.248.056-.149.149.191.177.388.35.593.514zm-3.904-3.395c.075.065.215-.019.145-.112a1.136 1.136 0 0 1-.22-.444c-.028-.135-.238-.075-.205.056a.854.854 0 0 0 .28.5zm-.514.514c.061.065.173-.019.126-.093a1.556 1.556 0 0 1-.271-.831c-.005-.131-.205-.131-.205 0 0 .355.103.668.35.925zm-.415 6.295c.112.009.135-.177.028-.196a4.017 4.017 0 0 1-1.088-.336c-.117-.056-.22.117-.103.177.369.191.752.313 1.163.355zm-.659.378c.089-.047.028-.191-.07-.164-.397.126-.817.084-1.135-.201-.103-.089-.257.061-.154.154.369.336.906.448 1.359.21z"/><path fill="#1d1d1b" style="fill:var(--color23,#1d1d1b)" d="M23.091 7.898c.061-.117.266-.065.257.07-.019.252-.187.532-.472.49-.098-.014-.135-.149-.093-.224.089-.14.234-.182.308-.336zM22.965 12.461c.009.126-.168.126-.205.028-.192-.49-.434-.911-.911-1.172-.061-.037-.019-.145.051-.117.532.206 1.009.673 1.065 1.261zM22.568 13.044c.009.149-.205.14-.224 0a2.39 2.39 0 0 0-.411-1.046c-.07-.103.098-.233.182-.135.28.346.439.733.453 1.181zM21.255 9.318c.112.028.084.191-.028.196-.35.019-.645.107-.883.378-.065.079-.201-.023-.145-.112.224-.341.644-.57 1.055-.462z"/><path fill="#fde9cc" style="fill:var(--color26,#fde9cc)" d="M20.835 16.019c-.005.014-.014.019-.019.033-.85 2.578-1.672 5.165-2.498 7.747-.369 1.149-.733 2.298-1.102 3.446-.257.799-.845 4.011-1.924 4.404-1.097-.406-1.42-2.648-1.723-3.615-.411-1.298-.822-2.601-1.233-3.904-.752-2.391-1.476-4.801-2.349-7.15 1.041.103 2.162-.042 3.068-.257 2.34-.556 4.45-1.494 6.902-.929.29.065.584.149.878.224zm-.873 1.812c.005-.126-.173-.117-.192 0-.056.444-.145.878-.229 1.312-.023.135.163.187.205.056a4.66 4.66 0 0 0 .215-1.368zm-.808 2.097c.205-.402.243-.869.107-1.303-.023-.07-.145-.061-.135.019a2.45 2.45 0 0 1-.168 1.2c-.042.112.14.191.196.084zm-2.349 4.324c.014-.145-.233-.182-.257-.033-.056.318-.093.64-.126.967-.014.135.224.173.248.033.051-.322.098-.644.135-.967zm-.701-3.306c.042-.215.079-.439.07-.663-.005-.098-.154-.126-.177-.023a2.898 2.898 0 0 0-.061.663c0 .098.149.126.168.023zm-.453-1.98c.019-.14-.168-.196-.215-.061-.131.411-.164.873-.023 1.284.037.107.21.098.205-.023-.019-.411-.033-.799.033-1.2zm-1.116 8.2c.079.107.257.019.187-.107-.191-.327-.36-.658-.458-1.023-.037-.131-.233-.079-.205.051.089.392.229.761.476 1.079zm-.747-.415c.07.098.224.014.164-.093a3.44 3.44 0 0 1-.406-1.2c-.014-.103-.173-.075-.173.019.005.453.149.911.416 1.275zm-1.055-8.868c.075-.042.009-.149-.065-.117a1.48 1.48 0 0 1-.939.121c-.098-.019-.14.126-.042.149a1.37 1.37 0 0 0 1.046-.154zm-.416-.369c.098-.033.089-.201-.023-.187-.364.047-.719.065-1.079-.005-.135-.028-.191.168-.061.201.388.098.785.117 1.163-.009z"/><path fill="#1d1d1b" style="fill:var(--color23,#1d1d1b)" d="M19.77 17.831c.019-.117.196-.126.192 0a4.66 4.66 0 0 1-.215 1.368c-.042.131-.229.079-.205-.056.084-.434.173-.869.229-1.312zM19.448 7.884c.145-.037.238.117.182.243-.065.149-.252.28-.383.383-.093.079-.299.009-.238-.14.079-.191.229-.43.439-.486zM19.261 18.625c.135.434.098.901-.107 1.303-.056.107-.238.028-.196-.084a2.45 2.45 0 0 0 .168-1.2c-.009-.079.112-.089.135-.019zM18.509 8.057c.149.201.14.532.084.771-.042.177-.294.126-.304-.042-.014-.224-.089-.425-.107-.645-.014-.187.238-.21.327-.084zM17.094 1.384c.051.079-.056.145-.121.093-.341-.29-.691-.528-1.139-.617-.093-.019-.07-.182.023-.168.481.061.962.271 1.237.691zM17.085 1.949c.093.093-.047.229-.145.145a10.272 10.272 0 0 0-1.065-.78c-.107-.07-.014-.22.098-.168.42.187.799.476 1.111.803zM16.548 24.22c.023-.149.271-.112.257.033a22.92 22.92 0 0 1-.135.967c-.023.14-.261.103-.248-.033.033-.327.07-.649.126-.967zM16.314 5.339c.009.145-.201.135-.22 0-.023-.215-.051-.43-.07-.644-.019-.154.233-.154.243 0 .019.215.033.43.047.644zM16.188 12.923c.079-.019.117.103.033.126a1.36 1.36 0 0 1-1.158-.182c-.07-.047-.005-.154.065-.112.322.196.691.248 1.06.168zM16.174 20.283c.009.224-.028.448-.07.663-.019.103-.168.075-.168-.023 0-.22.009-.448.061-.663.023-.103.173-.075.178.023zM15.847 11.943c.079.084-.037.191-.121.121a10.398 10.398 0 0 1-.593-.514c-.098-.093.047-.243.149-.149.191.177.383.355.565.542zM15.436 18.905c.047-.135.233-.079.215.061-.065.402-.051.789-.033 1.2.005.121-.168.131-.205.023-.14-.411-.107-.873.023-1.284zM14.722 27.059c.07.126-.107.215-.187.107-.248-.318-.388-.686-.476-1.079-.028-.131.168-.182.205-.051.098.364.266.696.458 1.023zM13.951 26.657c.061.107-.093.192-.164.093a2.226 2.226 0 0 1-.416-1.275c0-.093.159-.121.173-.019.066.434.192.813.406 1.2zM12.667 17.766c.075-.033.14.075.065.117a1.37 1.37 0 0 1-1.046.154c-.098-.023-.056-.168.042-.149.318.065.645.019.939-.121zM12.294 17.327c.112-.014.121.154.023.187-.378.126-.775.107-1.163.009-.131-.033-.075-.229.061-.201.36.07.715.051 1.079.005zM11.967 8.557c.07.093-.07.177-.145.112a.854.854 0 0 1-.28-.5c-.033-.131.177-.191.205-.056.037.173.117.303.22.444zM11.434 9.089c.047.075-.065.159-.126.093-.248-.257-.35-.57-.35-.925 0-.131.201-.131.205 0 .005.299.107.584.271.831zM10.921 15.281c.107.019.084.205-.028.196a3.194 3.194 0 0 1-1.163-.355c-.117-.061-.014-.233.103-.177.345.168.71.271 1.088.336zM10.164 15.692c.098-.028.159.117.07.164-.453.238-.99.126-1.359-.21-.103-.093.051-.243.154-.154.317.285.738.327 1.135.201z"/></symbol><symbol id="about-ice-cream-5" viewBox="0 0 32 32"><path fill="#fbd490" style="fill:var(--color29,#fbd490)" d="M16.723 31.418h-1.745c-.64 0-1.164-.524-1.164-1.164v-8.145h4.073v8.145c0 .64-.524 1.164-1.164 1.164z"/><path fill="#fbd490" style="fill:var(--color29,#fbd490)" d="M16.723 32h-1.745a1.747 1.747 0 0 1-1.745-1.745v-8.727h5.236v8.727c0 .962-.783 1.745-1.745 1.745zm-2.328-9.309v7.564c0 .321.261.582.582.582h1.745a.583.583 0 0 0 .582-.582v-7.564h-2.909z"/><path fill="#eeaf4b" style="fill:var(--color30,#eeaf4b)" d="M17.871 30.438a.568.568 0 0 1-.193-.033c-.145-.051-.343-.097-.563-.15-.838-.201-1.88-.45-2.23-1.199-.114-.244-.197-.642.055-1.149.06-.123.193-.424.103-.563-.145-.225-.798-.34-1.21-.328-.33.037-.591-.239-.602-.561s.24-.591.561-.602c.273-.013 1.666-.014 2.23.86.209.325.372.885-.04 1.711-.048.097-.044.136-.043.137.047.153.534.342 1.447.561.265.063.503.122.678.183a.58.58 0 0 1 .356.741.58.58 0 0 1-.549.391zM17.886 26.764c-1.343 0-2.436-1.03-2.436-2.296s1.093-2.296 2.436-2.296a.582.582 0 1 1 0 1.164c-.702 0-1.272.509-1.272 1.133s.57 1.133 1.272 1.133a.582.582 0 1 1 0 1.164z"/><path fill="#f9da49" style="fill:var(--color31,#f9da49)" d="M21.253 22.109H10.747a1.006 1.006 0 0 1-.997-1.137l2.304-17.511a3.98 3.98 0 0 1 7.892 0l2.304 17.511a1.006 1.006 0 0 1-.997 1.137z"/><path fill="#00d7ec" style="fill:var(--color32,#00d7ec)" d="m17.874 22.109 3.991-4.065-.386-2.929-6.867 6.995zM10.747 22.109h1.812l8.692-8.729-.383-2.913-11.024 11.07a.999.999 0 0 0 .902.572zM9.955 19.411 20.65 8.81l-.381-2.899-9.818 9.732zM19.946 3.461a3.966 3.966 0 0 0-.592-1.62l-8.161 8.161-.499 3.789 9.377-9.377-.125-.954zM16 0l-.043.002-3.971 3.971-.499 3.789L18.423.827A3.963 3.963 0 0 0 16 0z"/></symbol><symbol id="about-ice-cream-6" viewBox="0 0 32 32"><path fill="#ee8fbd" style="fill:var(--color33,#ee8fbd)" d="M12.796 4.978c-2.414 0-4.379 1.964-4.379 4.378s1.964 4.379 4.378 4.379 4.378-1.964 4.378-4.378-1.964-4.378-4.378-4.378z"/><path fill="#de71a6" style="fill:var(--color34,#de71a6)" d="M12.796 4.978v8.757c2.414 0 4.379-1.964 4.379-4.378s-1.964-4.378-4.378-4.378z"/><path fill="#6d2b92" style="fill:var(--color35,#6d2b92)" d="M19.554 4.978c-2.414 0-4.378 1.964-4.378 4.378s1.964 4.379 4.378 4.379 4.378-1.964 4.378-4.378-1.964-4.378-4.378-4.378z"/><path fill="#ffc9e3" style="fill:var(--color36,#ffc9e3)" d="M11.013 10.359a1.002 1.002 0 0 1-1.002-1.002 2.79 2.79 0 0 1 2.786-2.786 1.002 1.002 0 1 1 0 2.004.781.781 0 0 0-.781.781c0 .554-.449 1.002-1.002 1.002z"/><path fill="#f1b559" style="fill:var(--color37,#f1b559)" d="M23.659 11.576a1.003 1.003 0 0 0-.821-.428H9.07a1.002 1.002 0 0 0-.941 1.346l6.884 18.847a1.003 1.003 0 0 0 1.883 0l6.884-18.847c.112-.307.067-.65-.12-.918z"/><path fill="#5f1d85" style="fill:var(--color38,#5f1d85)" d="M19.554 4.978v8.757c2.414 0 4.378-1.964 4.378-4.378s-1.964-4.378-4.378-4.378z"/><path fill="#ea971e" style="fill:var(--color39,#ea971e)" d="M23.659 11.576a1.003 1.003 0 0 0-.821-.428h-6.884V32c.421 0 .797-.263.941-.658l6.884-18.847c.112-.307.067-.65-.12-.918z"/><path fill="#c075eb" style="fill:var(--color40,#c075eb)" d="M17.69 10.359a1.002 1.002 0 0 1-1.002-1.002 2.87 2.87 0 0 1 2.866-2.866 1.002 1.002 0 1 1 0 2.004.863.863 0 0 0-.862.862c0 .554-.449 1.002-1.002 1.002z"/><path fill="#f6d433" style="fill:var(--color41,#f6d433)" d="M16.178 0C13.764 0 11.8 1.964 11.8 4.378s1.964 4.378 4.378 4.378 4.378-1.964 4.378-4.378S18.592 0 16.178 0z"/><path fill="#e5bf2b" style="fill:var(--color42,#e5bf2b)" d="M16.178 0v8.757c2.414 0 4.378-1.964 4.378-4.378S18.592.001 16.178.001z"/><path fill="#ffeb96" style="fill:var(--color43,#ffeb96)" d="M14.495 5.381a1.002 1.002 0 0 1-1.002-1.002 2.688 2.688 0 0 1 2.685-2.685 1.002 1.002 0 1 1 0 2.004.682.682 0 0 0-.681.681c0 .554-.449 1.002-1.002 1.002z"/><path fill="#ea971e" style="fill:var(--color39,#ea971e)" d="M8.248 11.576a1.001 1.001 0 0 0-.12.918l.194.531h9.792v-1.878H9.069c-.327 0-.634.16-.821.428z"/></symbol><symbol id="about-ice-cream-7" viewBox="0 0 32 32"><path fill="#f5f7fa" style="fill:var(--color44,#f5f7fa)" d="M12.387 2.527c3.818 4.75-7.083 2.833-3.648 14.089 2.532 8.297 12.272 5.23 14.419 0C29.18 1.943 7.34-3.754 12.388 2.527z"/><path fill="#ed5564" style="fill:var(--color45,#ed5564)" d="M13.119 3.771a9.277 9.277 0 0 0 1.213-.62c1.123-.689 1.803-1.479 2.029-2.353-3.385-1.45-6.129-.951-3.975 1.729.382.474.616.882.732 1.244zM24.148 10.406a16.89 16.89 0 0 1-.702 1.065c-.962 1.347-2.593 3.188-4.893 4.3l-.581-1.2c2.036-.985 3.499-2.636 4.369-3.847a14.669 14.669 0 0 0 1.372-2.323 10.657 10.657 0 0 0-.851-1.936 27.466 27.466 0 0 1-2.856 3.491 26.44 26.44 0 0 1-3.894 3.351c-1.708 1.193-3.501 2.11-5.329 2.724l-.425-1.264c3.875-1.302 6.862-3.837 8.685-5.734 1.81-1.882 2.851-3.509 3.024-3.79a12.905 12.905 0 0 0-1.533-1.714c-.705 1.366-1.723 2.66-3.034 3.856-1.203 1.097-2.656 2.116-4.318 3.027a29.43 29.43 0 0 1-5.124 2.207c0 1.112.2 2.426.679 3.997 2.532 8.297 12.272 5.23 14.419 0 .94-2.293 1.202-4.367.99-6.21z"/><path fill="#ed5564" style="fill:var(--color45,#ed5564)" d="M16.615 6.39c1.278-1.168 2.243-2.428 2.874-3.75a14.849 14.849 0 0 0-1.912-1.25c-.819 2.468-3.876 3.63-4.742 3.914-1.053 1.363-4.003 2.364-4.648 5.87a29.022 29.022 0 0 0 4.382-1.943c1.564-.86 2.926-1.816 4.047-2.84z"/><path fill="#f6bb42" style="fill:var(--color46,#f6bb42)" d="M21.334 32H10.666l-2-13.703h14.667z"/><path fill="#e8a734" style="fill:var(--color47,#e8a734)" d="m22.976 20.748-3.204 3.205-2.829-2.829.063-.063-.943-.943-.063.064-.085-.085-.942.942.085.085-2.829 2.829-3.204-3.205.322 2.208 1.939 1.939-1.445 1.445.24 1.645 2.147-2.148 2.829 2.829-3.195 3.195.138.138h1.609L16 29.608l2.391 2.391h1.885l-3.332-3.333 2.829-2.829 2.147 2.148.24-1.645-1.445-1.445 1.939-1.939.322-2.208zM16 27.724l-2.829-2.828L16 22.068l2.828 2.828L16 27.724z"/><path style="fill:var(--color48,#000)" d="m8.502 17.955-.943-.942 2.068-2.068.943.943zM10.918 21.197l-.943-.943 5.554-5.554.943.942zM23.645 18.103l-2.248-2.249.942-.943 2.249 2.249z"/><path style="fill:var(--color48,#000)" d="m20.999 21.113-5.324-5.324.943-.943 5.324 5.324z"/><path fill="#ffce54" style="fill:var(--color49,#ffce54)" d="M24.666 20c0 .736-.596 1.333-1.332 1.333H8.667A1.333 1.333 0 0 1 7.334 20v-4c0-.736.597-1.333 1.333-1.333h14.667c.736 0 1.332.597 1.332 1.333v4z"/><path fill="#f6bb42" style="fill:var(--color46,#f6bb42)" d="M8.862 15.138A.668.668 0 0 0 10 14.667H8.667c0 .17.065.341.195.471zM11.529 15.138a.668.668 0 0 0 1.138-.471h-1.333c0 .17.065.341.195.471zM14.196 15.138a.668.668 0 0 0 1.138-.471h-1.333c0 .17.065.341.195.471zM16.862 15.138A.668.668 0 0 0 18 14.667h-1.333c0 .17.065.341.195.471zM19.529 15.138a.666.666 0 0 0 1.137-.471h-1.332a.66.66 0 0 0 .194.471zM22 14.667a.668.668 0 0 0 1.332 0h-1.333z"/></symbol><symbol id="about-ice-cream-8" viewBox="0 0 32 32"><path fill="#e8c252" style="fill:var(--color50,#e8c252)" d="m9.957 12.835 6.563 18.351 7.622-17.937z"/><path fill="#e68123" style="fill:var(--color51,#e68123)" d="m22.911 13.698-6.78 16.41.559 1.482 7.232-17.881z"/><path fill="#040000" style="fill:var(--color52,#040000)" d="M19.743 23.52a.152.152 0 0 1-.14-.207v.001l4.382-11.209H9.079l1.769 4.526c.007.016.01.035.01.055a.15.15 0 0 1-.095.14h-.001a.152.152 0 0 1-.196-.086l-1.93-4.938h15.79l-4.543 11.621a.151.151 0 0 1-.141.096zm-.715 1.827a.152.152 0 0 1-.14-.207v.001l.383-.981a.151.151 0 0 1 .197-.085h-.001a.151.151 0 0 1 .085.197v-.001l-.383.981a.151.151 0 0 1-.141.096zM16.531 32l-4.55-11.639a.138.138 0 0 1-.01-.055.15.15 0 0 1 .095-.14h.001a.15.15 0 0 1 .196.086l4.269 10.92 1.982-5.071a.151.151 0 1 1 .281.111v-.001l-2.264 5.791zm-4.85-12.67a.15.15 0 0 1-.14-.095v-.001l-.495-1.265a.138.138 0 0 1-.01-.055.15.15 0 0 1 .095-.14h.001a.138.138 0 0 1 .055-.01.15.15 0 0 1 .14.095v.001l.495 1.265a.152.152 0 0 1-.141.206z"/><path fill="#040000" style="fill:var(--color52,#040000)" d="m14.521 15.063-.194-.232-.912.881.194.232zm.217-.21 1.438-1.39-.004-.005-.412-.013-1.216 1.176zm-1.541 1.07-1.598 1.545.106.318 1.687-1.631zm2.324 2.777-.194-.232-1.824 1.764.194.232zm1.346-1.303 1.438-1.39-.194-.232-1.438 1.39zm-1.129 1.092.912-.881-.194-.232-.911.881zm-2.454 1.953-.527.509.106.318.615-.595zm7.059-6.405-.194-.232-.752.727.194.232zm-.97.938-.194-.232-.85.822.194.232zm1.187-1.148.232-.224-.421-.013-.005.005zm-3.194 6.608.912-.881-.194-.232-.912.881zm-.412-.022-1.824 1.764.194.232 1.824-1.764zm6.037-5.698.088-.224-.152.147zm-3.034 2.795.194.232.85-.822-.194-.232zm2.037-1.97.194.232.622-.602.054-.136-.155-.186zm-.97.938.194.232.752-.727-.194-.232zm-2.723 2.633.194.232 1.438-1.39-.194-.232zm-3.389 3.277-1.268 1.226.106.318 1.357-1.312zm3.846-.29.194.232.911-.881-.194-.232zm-2.065 2.418-.194-.232-1.5 1.45.194.232zm3.389-3.277.535-.517.269-.68-.998.965zm-5.301 4.705-.274.265.106.318.363-.351zm1.935-1.871.194.232 1.825-1.764-.194-.232zm1.75 2.091.226-.571-.389.376zm-2.099 1.676-.997.964.106.318 1.086-1.05zm.412.021 1.5-1.45-.194-.232-1.5 1.45zm6.148-13.223-.832-.995-.404-.013 1.019 1.218z"/><path fill="#040000" style="fill:var(--color52,#040000)" d="m22.709 14.849.155.186.126-.32-.064-.076zm-2.776 3.104 1.207 1.443.126-.32-1.116-1.334zm-1.822-2.178.218-.21-1.752-2.094-.396-.012-.005.005zm1.846 1.735-1.434-1.713-.218.21 1.434 1.714z"/><path fill="#040000" style="fill:var(--color52,#040000)" d="M16.181 13.458h-.009l.004.005zm2.342 2.339-.194-.232-.218.21.194.232zm1.216 1.924.194.232.218-.21-.194-.232zm1.285-1.243-1.434-1.713-.218.21 1.434 1.714zm-.023.443.76.908.126-.32-.668-.799zm-1.605-2.388-.837-1-.404-.013 1.023 1.223z"/><path fill="#040000" style="fill:var(--color52,#040000)" d="m19.59 14.765-.194-.232-.218.21.194.232zm1.216 1.924.194.232.218-.21-.194-.232zm-3.658 3.956 1.392 1.664.218-.21-1.392-1.664zm.024-.442-1.434-1.714-.218.21 1.434 1.714zm1.563 2.338.79.944.126-.32-.698-.834zm-7.053-8.899-.232.194 1.747 2.088.218-.21zm1.927 2.303-.218.21 1.935 2.312.218-.21z"/><path fill="#040000" style="fill:var(--color52,#040000)" d="m13.609 15.945-.194-.232-.218.21.194.232zm2.129 2.544-.194-.232-.218.21.194.232zm1.41 2.156.218-.21-.194-.232-.218.21zm1.393 1.664.194.232.218-.21-.194-.232zm-3.997-7.688-1.043-1.247-.404-.013 1.23 1.47zm5.126 6.596.218-.21-1.392-1.664-.218.21zm-1.586-1.896.218-.21-1.434-1.714-.218.21zm-1.629-1.945.218-.211-1.935-2.312-.218.21zm3.409 4.073.316.377.126-.32-.224-.268z"/><path fill="#040000" style="fill:var(--color52,#040000)" d="m14.738 14.853-.194-.232-.218.21.194.232zm2.129 2.544-.194-.232-.218.211.194.232zm1.217 1.924.194.232.218-.21-.194-.232zm1.78 2.128.218-.21-.194-.232-.218.21zm.502-7.854-.004-.005-.404-.013.191.228zm1.411 2.156.218-.21-1.434-1.714-.218.21zm.194.232.352.421.126-.32-.261-.312zm-1.411-2.156-.194-.232-.218.21.194.232z"/><path fill="#040000" style="fill:var(--color52,#040000)" d="m21.971 15.983.218-.21-.194-.232-.218.21zm-3.632 10.5.083-.211-.144.139zm-.254-.304.218-.21-1.392-1.664-.218.21zm-4.583-5.947-1.633-1.952.26.781 1.155 1.381zm1.822 2.177-.218.21 1.392 1.664.218-.21zm-1.628-1.945-.218.21 1.434 1.714.218-.21z"/><path fill="#040000" style="fill:var(--color52,#040000)" d="m13.502 20.232-.218.21.194.232.218-.21zm1.628 1.945-.218.21.194.232.218-.21zm1.368 2.107.194.232.218-.21-.194-.232zm1.587 1.895.194.232.144-.139.043-.109-.163-.195zm-1.523 1.893.781.933.126-.32-.689-.824zm-1.563-2.339-1.079-1.29.26.781.602.719zm.194.232-.218.211 1.392 1.664.218-.21z"/><path fill="#040000" style="fill:var(--color52,#040000)" d="m14.999 25.733-.218.21.194.232.218-.211zm1.368 2.107.194.232.218-.21-.194-.232zm-.447 2.616.576.689.126-.32-.962-1.15z"/><path fill="#fbd7b6" style="fill:var(--color53,#fbd7b6)" d="M8.614 11.302a1.462 1.462 0 0 0-.068.445c0 1.02 1.032 1.847 2.304 1.847h12.117c1.273 0 2.304-.827 2.304-1.847 0-.742-.547-1.382-1.335-1.676.083-.21.131-.437.131-.675 0-1.028-.851-1.863-1.912-1.894.245-.264.395-.612.395-.994 0-.826-.696-1.495-1.555-1.495h-.077c.071-.142.111-.301.111-.469 0-.603-.508-1.093-1.136-1.093h-.734c.056-.137.088-.296.088-.466 0-.512-.31-.781-.645-.926-.794-.343-3.53-2.619-3.023-1.662.062.117-.367 1.662-.367 1.662-.356 0-.645.415-.645.926 0 .17.033.329.088.466h-.734c-.627 0-1.136.489-1.136 1.093 0 .168.041.327.111.469h-.077c-.859 0-1.555.67-1.555 1.495 0 .382.15.729.395.994-1.061.031-1.912.866-1.912 1.895 0 .238.048.465.131.675-.214.08-.41.185-.582.311z"/><path style="fill:var(--color48,#000)" d="M22.967 13.757H10.85c-1.36 0-2.467-.902-2.467-2.01 0-.167.025-.333.075-.494a.163.163 0 0 1 .311.097v-.001c-.038.119-.06.255-.06.397 0 .929.961 1.684 2.142 1.684h12.117c1.181 0 2.142-.756 2.142-1.684 0-.647-.482-1.245-1.229-1.523l-.156-.058.061-.154c.079-.2.119-.407.119-.615 0-.942-.77-1.703-1.754-1.732l-.358-.011.244-.263c.227-.245.352-.558.352-.883 0-.735-.624-1.333-1.392-1.333h-.339l.117-.235a.881.881 0 0 0 .094-.397c0-.513-.436-.93-.973-.93h-.976l.091-.224c.05-.123.076-.263.076-.405 0-.364-.179-.618-.547-.777-.311-.135-.869-.525-1.459-.939-.426-.299-1.028-.72-1.336-.879.012.126-.032.479-.374 1.713l-.033.119h-.124c-.261 0-.482.35-.482.764 0 .142.026.282.076.405l.091.224h-.976c-.537 0-.973.417-.973.93 0 .137.032.271.094.397l.117.235h-.339c-.768 0-1.392.598-1.392 1.333 0 .325.125.638.352.883l.244.263-.358.011c-.983.029-1.754.79-1.754 1.732 0 .209.04.416.119.615l.061.154-.156.058a2.222 2.222 0 0 0-.543.29.163.163 0 0 1-.227-.035.163.163 0 0 1 .035-.227 2.53 2.53 0 0 1 .473-.272 1.926 1.926 0 0 1-.089-.583c0-1.02.755-1.861 1.767-2.028a1.609 1.609 0 0 1-.251-.86c0-.864.688-1.575 1.562-1.651a1.183 1.183 0 0 1-.041-.312v-.001c0-.692.582-1.255 1.298-1.255h.515a1.437 1.437 0 0 1-.032-.303c0-.552.29-.996.68-1.076.172-.628.335-1.306.338-1.461-.047-.092-.128-.278.003-.394.194-.172.544.04 1.84.948.551.386 1.12.785 1.401.907.486.21.743.582.743 1.076 0 .103-.011.205-.032.304h.515c.716 0 1.298.563 1.298 1.255v.001c0 .111-.015.219-.043.321l.002-.008c.874.076 1.562.788 1.562 1.651a1.6 1.6 0 0 1-.251.86c1.012.167 1.767 1.008 1.767 2.028 0 .197-.03.392-.089.583.79.349 1.292 1.029 1.292 1.768 0 1.108-1.107 2.01-2.467 2.01z"/><path style="fill:var(--color48,#000)" d="M22.919 11.027h-6.043a.163.163 0 0 1 0-.326h6.043c.089.001.16.074.16.163s-.072.161-.16.163zm-7.055 0h-.796a.163.163 0 0 1 0-.326h.796c.089.001.16.074.16.163s-.072.161-.16.163zm-2.098 0H10.731a.163.163 0 0 1 0-.326h3.036c.089.001.16.074.16.163s-.072.161-.16.163zM21.4 7.954h-2.065a.163.163 0 0 1 0-.326H21.4a.163.163 0 0 1 0 .326zm-3.294 0h-5.275c-.089-.001-.16-.074-.16-.163s.072-.161.16-.163h5.276a.163.163 0 0 1 0 .326zm1.088-2.333h-1.939a.163.163 0 0 1 0-.326h1.939a.163.163 0 0 1 0 .326zm-3.674 0h-1.533a.163.163 0 0 1 0-.326h1.533a.163.163 0 0 1 0 .326zm2.21-1.952h-1.92a.163.163 0 0 1 0-.326h1.92a.163.163 0 0 1 0 .326z"/></symbol><symbol id="about-ice-cream-9" viewBox="0 0 32 32"><path fill="#f1c84f" style="fill:var(--color54,#f1c84f)" d="M9.009 11.88 15.9 31.146l8.001-18.831z"/><path fill="#f0841b" style="fill:var(--color55,#f0841b)" d="m22.609 12.786-7.118 17.228.587 1.556 7.593-18.772z"/><path style="fill:var(--color48,#000)" d="M19.282 23.097a.158.158 0 0 1-.158-.159c0-.021.004-.041.011-.059v.001l4.6-11.768H8.086l1.857 4.752a.159.159 0 0 1-.296.117v-.001l-2.026-5.184h16.577l-4.769 12.2a.16.16 0 0 1-.148.101zm-.75 1.919a.159.159 0 0 1-.147-.218v.001l.402-1.029a.16.16 0 0 1 .207-.09h-.001a.159.159 0 0 1 .09.207v-.001l-.402 1.029a.159.159 0 0 1-.148.101zM15.91 32l-4.777-12.22a.157.157 0 0 1 .089-.205h.001a.157.157 0 0 1 .205.089v.001l4.481 11.464 2.081-5.324a.159.159 0 1 1 .295.117v-.001L15.908 32zm-5.091-13.301a.157.157 0 0 1-.147-.1v-.001l-.519-1.328a.157.157 0 0 1 .089-.205h.001a.157.157 0 0 1 .205.089v.001l.519 1.328a.16.16 0 0 1-.147.217z"/><path fill="#ec7699" style="fill:var(--color56,#ec7699)" d="M9.781 5.593c0 2.961 2.941 5.361 6.569 5.361s6.569-2.4 6.569-5.362c0-2.961-2.941-5.362-6.569-5.362s-6.569 2.4-6.569 5.362z"/><path fill="#d8476d" style="fill:var(--color57,#d8476d)" d="M16.781.231c-.221 0-.439.01-.653.029 3.165.297 5.638 2.858 5.638 5.974a5.828 5.828 0 0 1-1.343 3.715c1.58-.973 2.611-2.561 2.611-4.357 0-2.961-2.8-5.362-6.253-5.362z"/><path fill="#040000" style="fill:var(--color52,#040000)" d="M10.393 2.619a.158.158 0 0 1-.116-.266 6.857 6.857 0 0 1 1.172-1.014.157.157 0 0 1 .22.04v.001a.157.157 0 0 1-.04.22h-.001c-.414.284-.79.609-1.118.966a.157.157 0 0 1-.117.051z"/><path fill="#040000" style="fill:var(--color52,#040000)" d="M15.91 12.337c-3.952 0-7.168-2.767-7.168-6.168 0-.906.223-1.779.662-2.594a.159.159 0 0 1 .279.152v-.001a5.102 5.102 0 0 0-.624 2.443c0 3.226 3.073 5.851 6.851 5.851s6.851-2.625 6.851-5.851c0-3.227-3.073-5.851-6.851-5.851-1.094 0-2.14.214-3.108.636a.16.16 0 0 1-.208-.081V.872a.16.16 0 0 1 .081-.208h.001a8.05 8.05 0 0 1 3.235-.662c3.952 0 7.168 2.767 7.168 6.168s-3.216 6.168-7.168 6.168z"/><path fill="#e5c569" style="fill:var(--color58,#e5c569)" d="M15.91 2.147a.247.247 0 1 0 .494 0 .247.247 0 1 0-.494 0zM16.666 1.653a.247.247 0 1 0 .494 0 .247.247 0 1 0-.494 0zM16.666 2.642a.247.247 0 1 0 .494 0 .247.247 0 1 0-.494 0zM17.989 1.9a.247.247 0 0 1-.494 0 .247.247 0 0 1 .494 0zM14.617 2.901a.324.324 0 1 0 .648 0 .324.324 0 1 0-.648 0zM17.989 3.555a.247.247 0 1 1-.247-.247c.137 0 .247.111.247.247zM15.91 1.405a.247.247 0 1 0 .494 0 .247.247 0 1 0-.494 0zM17.989 2.642a.247.247 0 1 1-.247-.247c.137 0 .247.111.247.247zM18.462 2.642a.247.247 0 1 0 .494 0 .247.247 0 1 0-.494 0zM18.71 3.803a.247.247 0 1 0 .494 0 .247.247 0 1 0-.494 0z"/><path style="fill:var(--color48,#000)" d="m13.8 14.219-.204-.244-.957.925.204.244zm.228-.221 1.509-1.459-.004-.005-.432-.014-1.277 1.234zm-1.618 1.124-1.678 1.622.111.334 1.771-1.712zm2.439 2.915-.204-.244-1.915 1.852.204.244zm1.414-1.367 1.509-1.459-.204-.244-1.509 1.459zm-1.185 1.146.957-.925-.204-.244-.957.925zm-2.576 2.05-.553.535.111.334.646-.624zm7.41-6.724-.204-.244-.79.764.204.244zm-1.019.985-.204-.244-.892.863.204.244zm1.247-1.206.243-.235-.442-.014-.005.005zm-3.353 6.937.957-.925-.204-.244-.957.925zm-.432-.022-1.915 1.852.204.244 1.915-1.852zm6.337-5.983.093-.235-.16.155zm-3.185 2.935.204.244.892-.863-.204-.244zm2.139-2.068.204.244.653-.632.056-.143-.163-.195zm-1.019.985.204.244.79-.764-.204-.244zm-2.858 2.763.204.244 1.509-1.459-.204-.244zm-3.558 3.441-1.332 1.288.111.334 1.425-1.377zm4.037-.304.204.244.957-.925-.204-.244zm-2.168 2.538-.204-.244-1.574 1.522.204.244zm3.558-3.441.561-.543.282-.714-1.048 1.013zm-5.565 4.94-.288.278.111.334.381-.368zm2.032-1.964.204.244 1.915-1.852-.204-.244zm1.836 2.195.237-.599-.408.395zm-2.203 1.759-1.047 1.012.111.334 1.14-1.102zm.433.023 1.574-1.522-.204-.244-1.574 1.522zm6.454-13.882-.874-1.044-.424-.013 1.07 1.279z"/><path style="fill:var(--color48,#000)" d="m22.396 13.994.163.195.133-.335-.067-.08zm-2.914 3.259 1.268 1.515.133-.336-1.172-1.4zm-1.913-2.287.228-.221-1.839-2.198-.415-.013-.005.005zm1.938 1.822-1.505-1.799-.228.221 1.505 1.799zm-3.964-4.254h-.009l.004.005z"/><path style="fill:var(--color48,#000)" d="m18.001 14.989-.204-.244-.228.221.204.244zm1.277 2.02.204.244.229-.221-.204-.244zm1.349-1.304-1.505-1.799-.228.221 1.505 1.799zm-.024.464.797.953.133-.335-.701-.838zm-1.685-2.507-.878-1.05-.424-.013 1.074 1.284z"/><path style="fill:var(--color48,#000)" d="m19.122 13.906-.204-.244-.228.221.204.244zm1.277 2.019.204.244.228-.221-.204-.244zm-3.841 4.154 1.461 1.747.228-.221-1.461-1.747zm.025-.464-1.505-1.799-.229.221 1.505 1.799zm1.641 2.455.829.991.133-.336-.733-.876zm-7.404-9.343-.243.203 1.834 2.192.228-.221zm2.023 2.418-.228.221 2.031 2.427.229-.221z"/><path style="fill:var(--color48,#000)" d="m12.843 15.145-.204-.244-.228.221.204.244zm2.235 2.671-.204-.244-.229.221.204.244zm1.48 2.263.229-.221-.204-.244-.229.221zm1.462 1.747.204.244.229-.221-.204-.244zm-4.196-8.071-1.095-1.309-.424-.013 1.291 1.543zm5.381 6.925.229-.221-1.461-1.747-.228.221zm-1.665-1.991.228-.221-1.505-1.799-.229.221zm-1.709-2.042.228-.221-2.031-2.427-.228.221zm3.578 4.276.331.396.133-.336-.236-.282zm-5.381-6.925-.204-.244-.228.221.204.244zm2.235 2.672-.204-.244-.228.221.204.244zm1.277 2.019.204.244.228-.221-.204-.244z"/><path style="fill:var(--color48,#000)" d="m19.409 20.923.229-.221-.204-.244-.229.221zm.527-8.246-.005-.005-.424-.013.201.24zm1.481 2.264.229-.221-1.505-1.799-.228.221zm.204.243.37.442.133-.335-.274-.328z"/><path style="fill:var(--color48,#000)" d="m20.14 12.921-.204-.244-.228.221.204.244zm1.481 2.263.228-.221-.204-.244-.229.221zm-3.813 11.024.087-.221-.151.146zm-.267-.319.229-.221-1.461-1.747-.228.221zm-4.811-6.244-1.714-2.049.273.82 1.213 1.45zm1.913 2.286-.229.221 1.461 1.747.228-.221zm-1.709-2.042-.229.221 1.505 1.799.229-.221zm-.204-.244-.228.221.204.244.229-.221z"/><path style="fill:var(--color48,#000)" d="m14.439 21.688-.229.221.204.244.229-.221zm1.437 2.211.204.244.228-.221-.204-.244zm1.665 1.99.204.244.151-.146.045-.114-.171-.205zm-1.599 1.987.82.98.133-.336-.724-.865zm-1.64-2.455-1.133-1.354.273.82.632.755zm.204.244-.229.221 1.461 1.747.229-.221z"/><path style="fill:var(--color48,#000)" d="m14.302 25.421-.229.221.204.244.229-.221zm1.436 2.211.204.244.229-.221-.204-.244zm-.469 2.748.605.723.133-.336-1.01-1.208z"/><path fill="#e5c569" style="fill:var(--color58,#e5c569)" d="M18.215 1.9a.247.247 0 1 0 .494 0 .247.247 0 1 0-.494 0zM15.527 3.061a.247.247 0 1 0 .494 0 .247.247 0 1 0-.494 0zM19.334 2.642a.247.247 0 1 0 .494 0 .247.247 0 1 0-.494 0z"/><path fill="#fff" style="fill:var(--color59,#fff)" d="M8.033 10.424s-2.457 3.627 1.536 2.116c0 0-.827 3.339 2.969 1.411 1.058-.537 1.331 1.344 1.331 1.344s1.706.739 2.833-1.914c1.126-2.653 1.195 1.175 2.526 1.075s2.184-1.176 2.389-2.15c.205-.974 1.741.806 1.911 1.209s2.198-1.924-.649-4.971c-1.843-1.972-2.638-2.208-2.911-.327s-1.012 1.433-2.311-.446c-.628-.909-2.284-.265-3.04.637-.477.568-1.635.908-2.557-.536s-3.959.235-4.028 2.553z"/><path fill="#040000" style="fill:var(--color52,#040000)" d="M14.42 15.547a1.64 1.64 0 0 1-.613-.108l-.081-.035-.013-.088c-.053-.363-.303-1.304-.813-1.304a.653.653 0 0 0-.289.079c-.806.409-1.475.617-1.989.617-.433 0-.765-.144-.987-.427-.348-.445-.321-1.121-.27-1.499-1.191.412-1.893.371-2.146-.105-.364-.687.472-2.022.658-2.304.08-1.727 1.78-3.197 3.138-3.197.517 0 .925.211 1.18.61.397.622.874.951 1.38.951.412 0 .746-.223.922-.432.551-.656 1.491-1.133 2.236-1.133.461 0 .826.176 1.056.508.271.392 1.096 1.584 1.539 1.584.216 0 .383-.37.485-1.071.089-.612.281-1.425.926-1.425.498 0 1.152.483 2.258 1.666 2.018 2.159 1.591 3.877 1.314 4.516-.196.452-.489.767-.713.767a.227.227 0 0 1-.214-.142c-.137-.323-1.088-1.4-1.486-1.4-.032 0-.091 0-.125.162-.214 1.02-1.098 2.166-2.532 2.275-.676.051-1.053-.704-1.353-1.305-.149-.298-.352-.707-.484-.707-.033 0-.215.041-.555.842-.778 1.832-1.855 2.106-2.428 2.106zm-.411-.372c.083.024.228.056.41.056.604 0 1.465-.332 2.136-1.912.308-.725.561-1.035.847-1.035.328 0 .532.409.768.883.272.546.577 1.164 1.045 1.13 1.271-.096 2.055-1.117 2.246-2.024.076-.36.305-.413.435-.413.581 0 1.512 1.113 1.741 1.52.108-.077.334-.347.476-.813.211-.697.317-2.132-1.349-3.915-.628-.672-1.522-1.566-2.026-1.566-.11 0-.444 0-.612 1.153-.084.576-.257 1.342-.799 1.342-.433 0-.954-.498-1.8-1.721-.17-.246-.438-.371-.795-.371-.649 0-1.506.438-1.994 1.019a1.539 1.539 0 0 1-1.164.545c-.432 0-1.069-.19-1.648-1.098-.244-.383-.631-.463-.913-.463-1.102 0-2.773 1.233-2.823 2.936l-.001.046-.026.038c-.271.4-.918 1.541-.666 2.016.079.149.254.221.534.221.354 0 .852-.12 1.48-.358l.282-.107-.072.293c-.002.01-.239.998.162 1.509.161.205.402.305.737.305.463 0 1.084-.196 1.845-.583a.966.966 0 0 1 .433-.114c.769 0 1.044 1.133 1.11 1.479z"/></symbol><svg id="btn-title-icon" width="8" height="10" fill="none" viewBox="0 0 8 10" xmlns="http://www.w3.org/2000/svg"><path d="m1.616 1 4.428 4-4.428 4" stroke-width="2" stroke-linecap="round" stroke-linejoin="round"/></svg></defs></svg>