<svg aria-hidden="true" style="width:0;height:0;position:absolute;overflow:hidden" xmlns="http://www.w3.org/2000/svg"><defs><symbol id="icon-Group-4" viewBox="0 0 133 32"><path d="M81.512 16c0 8.837-6.843 16-15.284 16s-15.284-7.163-15.284-16S57.787 0 66.228 0s15.284 7.163 15.284 16zM30.567 16c0 8.837-6.843 16-15.284 16S-.001 24.837-.001 16 6.842 0 15.283 0s15.284 7.163 15.284 16zM132.458 16c0 8.837-6.843 16-15.284 16s-15.284-7.163-15.284-16 6.843-16 15.284-16 15.284 7.163 15.284 16z"/></symbol><symbol id="icon-arrow-right2" viewBox="0 0 32 32"><path d="m19.414 27.414 10-10a2 2 0 0 0 0-2.828l-10-10a2 2 0 1 0-2.828 2.828L23.172 14H4a2 2 0 1 0 0 4h19.172l-6.586 6.586c-.39.39-.586.902-.586 1.414s.195 1.024.586 1.414a2 2 0 0 0 2.828 0z"/></symbol></defs></svg>